<svg width="201" height="154" viewBox="0 0 201 154" fill="none" xmlns="http://www.w3.org/2000/svg">
<path d="M100.5 2C81.3807 2 63.0444 9.90176 49.525 23.967C36.0056 38.0322 28.4105 57.1088 28.4105 77C28.4105 96.8912 36.0056 115.968 49.525 130.033C63.0444 144.098 81.3807 152 100.5 152" stroke="#FEFFFF" stroke-opacity="0.2" stroke-width="3.348"/>
<path d="M41.8741 54.2964V39.419C41.8741 36.8959 43.3527 35.6344 46.3101 35.6344C49.2294 35.6344 50.689 36.8405 50.689 39.2529V54.9134C50.689 59.0816 49.3548 62.19 46.6864 64.2385C45.4016 65.2192 44.0787 65.9785 42.7179 66.5164C41.3647 67.0621 40.0457 67.335 38.7609 67.335H23.3432C22.0508 67.335 20.728 67.0621 19.3747 66.5164C18.0139 65.9785 16.6911 65.2192 15.4063 64.2385C14.1215 63.2182 13.1332 61.9487 12.4413 60.4301C11.7495 58.9115 11.4036 57.0726 11.4036 54.9134V18.2892C11.4036 16.1774 11.7609 14.3503 12.4756 12.808C13.1902 11.2657 14.1671 10.0041 15.4063 9.02337H15.3265C16.6189 8.15334 17.9569 7.43359 19.3405 6.86412C20.7166 6.30256 22.0508 6.02178 23.3432 6.02178H38.0196C39.3044 6.02178 40.6387 6.30256 42.0223 6.86412C43.4059 7.43359 44.7364 8.15334 46.0136 9.02337H45.9451C48.568 11.0323 49.8794 14.1209 49.8794 18.2892V23.6042C49.8794 26.072 48.4197 27.3058 45.5004 27.3058C42.5887 27.3058 41.1328 26.072 41.1328 23.6042V18.9773C41.1328 17.6881 40.7603 16.5056 40.0153 15.4299C39.2778 14.3464 37.993 13.8046 36.1608 13.8046H25.2704C23.385 13.8046 22.0736 14.3464 21.3362 15.4299C20.5987 16.5056 20.23 17.6881 20.23 18.9773V54.2964C20.23 54.9608 20.3136 55.6054 20.4809 56.2303C20.6557 56.8393 20.9408 57.389 21.3362 57.8794C21.7315 58.3698 22.2522 58.7692 22.8984 59.0776C23.5371 59.3861 24.3277 59.5403 25.2704 59.5403H36.9021C38.7267 59.5403 40.0115 58.9985 40.7565 57.915C41.5015 56.8393 41.8741 55.6331 41.8741 54.2964ZM38.3845 38.5648C38.3845 39.4427 38.2249 40.2771 37.9056 41.0681C37.5863 41.8669 37.1416 42.5471 36.5714 43.1087C36.0012 43.6781 35.3474 44.129 34.61 44.4612C33.8649 44.7934 33.0477 44.9595 32.1582 44.9595C30.478 44.9595 29.045 44.3425 27.859 43.1087C26.673 41.8748 26.0801 40.3602 26.0801 38.5648C26.0801 36.8168 26.673 35.3259 27.859 34.092C29.045 32.8582 30.478 32.2412 32.1582 32.2412C33.0477 32.2412 33.8649 32.4073 34.61 32.7395C35.3474 33.0717 36.0012 33.5226 36.5714 34.092C37.1416 34.6615 37.5863 35.3298 37.9056 36.097C38.2249 36.8643 38.3845 37.6868 38.3845 38.5648ZM93.9771 67.335H66.848C65.0158 67.335 63.7804 66.8446 63.1418 65.8639C62.5032 64.8831 62.1839 63.8035 62.1839 62.625V10.6487C62.1839 9.47025 62.5032 8.40249 63.1418 7.44546C63.7804 6.49634 65.0158 6.02178 66.848 6.02178H92.6429C94.4675 6.02178 95.4292 7.30705 95.528 9.87758C95.6345 12.4956 94.6728 13.8046 92.6429 13.8046H70.9304V59.5403H93.9771C95.8093 59.5403 96.7482 60.8019 96.7938 63.3249C96.8927 65.9983 95.9538 67.335 93.9771 67.335ZM89.8946 35.3971C89.8946 37.2004 89.2903 38.719 88.0815 39.9528C86.8727 41.1867 85.4054 41.8036 83.6797 41.8036C81.9995 41.8036 80.5665 41.1867 79.3805 39.9528C78.1945 38.719 77.6016 37.2004 77.6016 35.3971C77.6016 33.6016 78.1945 32.087 79.3805 30.8532C80.5665 29.6193 81.9995 29.0024 83.6797 29.0024C85.4054 29.0024 86.8727 29.6193 88.0815 30.8532C89.2903 32.087 89.8946 33.6016 89.8946 35.3971ZM136.672 67.335H109.543C107.718 67.335 106.483 66.8446 105.837 65.8639C105.198 64.8831 104.879 63.8035 104.879 62.625V10.6487C104.879 9.47025 105.198 8.40249 105.837 7.44546C106.483 6.49634 107.718 6.02178 109.543 6.02178H135.338C137.163 6.02178 138.128 7.30705 138.235 9.87758C138.333 12.4956 137.368 13.8046 135.338 13.8046H113.626V59.5403H136.672C138.504 59.5403 139.443 60.8019 139.489 63.3249C139.588 65.9983 138.649 67.335 136.672 67.335ZM132.601 35.3971C132.601 37.2004 131.993 38.719 130.777 39.9528C129.568 41.1867 128.101 41.8036 126.375 41.8036C124.695 41.8036 123.262 41.1867 122.076 39.9528C120.89 38.719 120.297 37.2004 120.297 35.3971C120.297 33.6016 120.89 32.087 122.076 30.8532C123.262 29.6193 124.695 29.0024 126.375 29.0024C128.101 29.0024 129.568 29.6193 130.777 30.8532C131.993 32.087 132.601 33.6016 132.601 35.3971ZM156.241 34.5547L178.843 6.94717C179.588 6.02178 180.432 5.55908 181.374 5.55908C182.408 5.55908 183.469 6.04551 184.556 7.01835C185.096 7.58783 185.552 8.15335 185.924 8.71491C186.297 9.28438 186.483 9.8499 186.483 10.4115C186.483 11.3448 186.16 12.1436 185.514 12.808L175.593 24.8381L156.241 48.5187V64.0131C156.241 66.4808 154.758 67.7146 151.793 67.7146C148.882 67.7146 147.426 66.4808 147.426 64.0131V9.33184C147.426 6.86412 148.882 5.63027 151.793 5.63027C154.758 5.63027 156.241 6.86412 156.241 9.33184V34.5547ZM182.412 64.9385L168.329 43.5714C167.835 42.8516 167.587 41.9816 167.587 40.9613C167.587 39.4111 168.203 38.1732 169.435 37.2479H169.366C170.355 36.5281 171.339 36.1682 172.32 36.1682C173.263 36.1682 174.057 36.7337 174.703 37.8648L189.003 59.6115L188.935 59.5403C189.376 60.2601 189.596 61.0312 189.596 61.8538C189.596 63.1905 188.954 64.3729 187.669 65.4012H187.749C187.202 65.765 186.681 66.0497 186.187 66.2554C185.693 66.461 185.248 66.5638 184.852 66.5638C184.457 66.5638 184.05 66.4056 183.632 66.0893C183.214 65.7887 182.807 65.4051 182.412 64.9385Z" fill="#FEFFFF"/>
<path d="M62.4616 145.29L42.2609 81.1075L22.1521 145.29V145.194C21.785 146.149 21.2803 146.929 20.6379 147.534C19.9955 148.138 19.2155 148.441 18.2978 148.441C17.8083 148.441 17.3342 148.393 16.8753 148.297C16.4165 148.202 15.9424 148.09 15.4529 147.963H15.5447C12.0575 146.817 10.7727 144.781 11.6904 141.853L32.6252 75.6655C32.9311 74.6471 33.4664 73.7878 34.2312 73.0877C34.9959 72.3875 35.8983 71.9738 36.9383 71.8465C37.9784 71.6556 38.9878 71.5124 39.9667 71.4169C40.9456 71.3214 41.7103 71.2737 42.2609 71.2737C42.8116 71.2737 43.5763 71.3214 44.5552 71.4169C45.534 71.5124 46.5435 71.6238 47.5835 71.751C48.44 71.8783 49.2813 72.3557 50.1072 73.1832C50.9331 74.0106 51.5602 74.838 51.9884 75.6655C55.4145 86.6132 58.8902 97.6444 62.4157 108.759C65.9335 119.866 69.4054 130.897 72.8315 141.853C73.688 144.781 72.4032 146.817 68.9772 147.963C68.4877 148.09 68.0442 148.202 67.6465 148.297C67.2489 148.393 66.8053 148.441 66.3159 148.441C65.4594 148.441 64.6793 148.138 63.9758 147.534C63.2722 146.929 62.7675 146.149 62.4616 145.194V145.29ZM49.1436 124.656C49.1436 126.692 48.4553 128.427 47.0788 129.859C45.7023 131.299 44.0351 132.019 42.0774 132.019C40.1197 132.019 38.4678 131.299 37.1219 129.859C35.7759 128.427 35.103 126.692 35.103 124.656C35.103 122.619 35.7759 120.884 37.1219 119.452C38.4678 118.02 40.1197 117.304 42.0774 117.304C44.0351 117.304 45.7023 118.02 47.0788 119.452C48.4553 120.884 49.1436 122.619 49.1436 124.656ZM113.68 119.5H101.016C99.976 119.5 99.1653 119.07 98.5841 118.211C98.0029 117.352 97.7123 116.19 97.7123 114.726C97.7123 111.48 98.9971 109.857 101.567 109.857H111.294C113.558 109.857 115.164 109.189 116.112 107.852C117.06 106.516 117.534 105.052 117.534 103.46V87.7907C117.534 86.1994 117.06 84.7355 116.112 83.3989C115.164 82.0622 113.558 81.3939 111.294 81.3939H92.0112V143.762C92.0112 146.817 90.1758 148.345 86.505 148.345C82.9566 148.345 81.1824 146.817 81.1824 143.762V77.4795C81.1824 75.1881 81.7331 73.6605 82.8343 72.8967C83.9355 72.1329 85.2814 71.751 86.8721 71.751H113.68C115.21 71.751 116.831 72.1011 118.544 72.8013C120.257 73.5014 121.909 74.3925 123.499 75.4745H123.408C124.998 76.6839 126.222 78.2592 127.078 80.2005C127.935 82.1418 128.363 84.3854 128.363 86.9314V104.224C128.363 109.38 126.711 113.231 123.408 115.776C121.817 116.986 120.196 117.909 118.544 118.545C116.892 119.182 115.271 119.5 113.68 119.5ZM174.913 119.5H162.237C161.197 119.5 160.387 119.07 159.805 118.211C159.224 117.352 158.934 116.19 158.934 114.726C158.934 111.48 160.222 109.857 162.799 109.857H172.527C174.791 109.857 176.397 109.189 177.345 107.852C178.293 106.516 178.767 105.052 178.767 103.46V87.7907C178.767 86.1994 178.293 84.7355 177.345 83.3989C176.397 82.0622 174.791 81.3939 172.527 81.3939H153.244V143.762C153.244 146.817 151.409 148.345 147.738 148.345C144.189 148.345 142.415 146.817 142.415 143.762V77.4795C142.415 75.1881 142.966 73.6605 144.067 72.8967C145.168 72.1329 146.514 71.751 148.105 71.751H174.913C176.442 71.751 178.064 72.1011 179.777 72.8013C181.49 73.5014 183.142 74.3925 184.732 75.4745H184.64C186.231 76.6839 187.455 78.2592 188.311 80.2005C189.168 82.1418 189.596 84.3854 189.596 86.9314V104.224C189.596 109.38 187.944 113.231 184.64 115.776C183.05 116.986 181.429 117.909 179.777 118.545C178.125 119.182 176.504 119.5 174.913 119.5Z" fill="#FEFFFF"/>
</svg>
